<svg xmlns="http://www.w3.org/2000/svg" width="16" height="16" viewBox="0 0 16 16">
  <g fill="none">
    <rect width="16" height="16" fill="#FFF"/>
    <path fill="#353F52" d="M14,9.5 C14,10.7978302 13.1758735,11.9031812 12.0223973,12.3212761 L12.5,12.9600672 L12.4143783,13.0109612 C12.5737798,13.3053397 12.5046017,13.6973028 12.2569002,13.8919418 C12.0061101,14.0889434 11.6672297,14.0090623 11.5,13.7135277 L12.3320658,13.0598883 L11.5916435,13.5 L10.8439769,12.5 L3.15601376,12.5 L2.40832674,13.5 L1.66805482,13.0599633 L2.5,13.7135277 C2.33279256,14.0090623 1.99391844,14.0889434 1.74310454,13.8919418 C1.49538311,13.6973057 1.42621707,13.3053513 1.58564766,13.0109783 L1.5,12.9600672 L1.97761257,12.3212804 C0.82412907,11.9031887 0,10.7978346 0,9.5 L0,5.5 C0,5.22386 0.2238575,5 0.5,5 L11,5 L11,2 C11,1.447715 10.5523,1 10,1 C9.4477,1 9,1.447715 9,2 L9,2.5 C9,2.77614 8.77615,3 8.5,3 C8.22385,3 8,2.77614 8,2.5 L8,2 C8,0.8954305 8.89545,0 10,0 C11.10455,0 12,0.8954305 12,2 L12,5 L13.5,5 C13.77615,5 14,5.22386 14,5.5 L14,9.5 Z M13,9.5 L13,6 L11.5,6 L1,6 L1,9.5 C1,10.60455 1.89543,11.5 3,11.5 L11,11.5 C12.10455,11.5 13,10.60455 13,9.5 Z" transform="translate(1 1)"/>
  </g>
</svg>
