<svg xmlns="http://www.w3.org/2000/svg" width="16" height="16" viewBox="0 0 16 16">
  <g fill="none">
    <rect width="16" height="16" fill="#FFF"/>
    <path fill="#353F52" d="M1.5,4.5 L9,4.5 C9,3.671575 9.67155,3 10.5,3 L12.5,3 C12.6753192,3 12.8436117,3.03007605 13,3.08534989 L13,0.5 C13,0.2238575 13.22385,0 13.5,0 C13.77615,0 14,0.2238575 14,0.5 L14,10.5 C14,10.77615 13.77615,11 13.5,11 C13.22385,11 13,10.77615 13,10.5 L13,9.5 L1,9.5 L1,10.5 C1,10.77615 0.7761425,11 0.5,11 C0.2238575,11 0,10.77615 0,10.5 L0,6 C0,5.171575 0.671573,4.5 1.5,4.5 Z M1.5,5.5 C1.22386,5.5 1,5.72385 1,6 L1,8.5 L13,8.5 L13,5.5 L1.5,5.5 Z M10,4.5 L13,4.5 C13,4.22386 12.77615,4 12.5,4 L10.5,4 C10.22385,4 10,4.22386 10,4.5 Z" transform="translate(1 2.5)"/>
  </g>
</svg>
