<svg xmlns="http://www.w3.org/2000/svg" width="16" height="16" viewBox="0 0 16 16">
  <g fill="none">
    <rect width="16" height="16" fill="#FFF"/>
    <path fill="#353F52" d="M0,0.5 C0,0.367392 0.0526785,0.240215 0.1464465,0.1464465 C0.240215,0.0526785 0.367392,0 0.5,0 L13.5,0 C13.77615,0 14,0.2238575 14,0.5 L14,8.5 C14,8.77615 13.77615,9 13.5,9 L0.5,9 C0.2238575,9 0,8.77615 0,8.5 L0,0.5 Z M11.8993701,1 L2.10063384,1 L6.7154,4.194835 L6.1462,5.017025 L1,1.45428237 L1,8 L13,8 L13,1.45427936 L7.8538,5.017025 L7.2846,4.194835 L11.8993701,1 Z M6.1462,5.017025 L6.7154,4.194835 C6.8866,4.313375 7.1134,4.313375 7.2846,4.194835 L7.8538,5.017025 C7.34015,5.372645 6.65985,5.372645 6.1462,5.017025 Z" transform="translate(1 3.5)"/>
  </g>
</svg>
