<svg xmlns="http://www.w3.org/2000/svg" width="50" height="14" viewBox="0 0 50 14">
  <path fill="#353F52" d="M565.559169,36.6337253 C567.135352,36.6337253 568.398799,35.3077308 568.398799,33.6564924 C568.398799,32.0052539 567.122842,30.6792594 565.559169,30.6792594 C563.995497,30.6792594 562.71954,32.0052539 562.71954,33.6564924 C562.71954,35.3077308 563.982987,36.6337253 565.559169,36.6337253 Z M568.086065,25.0125094 L568.086065,25 L570,25 L570,38.1348511 L568.086065,38.1348511 L568.086065,37.4468351 C567.322992,37.9472104 566.584939,38.259945 565.584188,38.259945 C562.969727,38.259945 560.830623,36.2084063 560.830623,33.6690018 C560.830623,31.1421066 562.969727,29.0780585 565.584188,29.0780585 C566.509882,29.0780585 567.37303,29.3407556 568.086065,29.7910933 L568.086065,25.0125094 Z M553.112334,32.7558169 L558.041031,32.7558169 C557.828371,31.4798599 556.802602,30.5916938 555.664248,30.5916938 C554.513385,30.5916938 553.362522,31.4423317 553.112334,32.7558169 Z M555.714286,29.0655492 C558.041031,29.0655492 559.992494,30.6042032 559.992494,33.4563423 C559.992494,33.643983 559.992494,33.806605 559.979985,34.0943207 L553.024769,34.0943207 C553.124844,35.5328997 554.275707,36.6212159 555.751814,36.6212159 C556.990243,36.6212159 557.815862,36.0582937 558.278709,35.2702027 L559.767325,36.2209157 C559.054291,37.3342507 557.890918,38.0848136 556.327245,38.2474356 C553.625219,38.5101326 551.17338,36.5211409 551.110833,33.806605 C551.048286,31.154616 552.99975,29.0655492 555.714286,29.0655492 Z M542.041531,38.2224168 C540.577933,38.2224168 539.22692,37.6344759 538.601451,36.4085564 L540.002502,35.4078059 C540.352765,36.13335 541.203403,36.5711784 542.129097,36.5711784 C542.854641,36.5711784 543.442582,36.2584438 543.442582,35.6454841 C543.442582,35.1200901 543.0673,34.8198649 542.029022,34.5071303 L541.278459,34.2819615 C539.789842,33.8441331 539.014261,32.9059294 539.02677,31.6049537 C539.039279,30.0913185 540.327746,29.1030773 542.091569,29.1030773 C543.254941,29.1030773 544.280711,29.5033775 544.981236,30.3415061 L543.842882,31.5298974 C543.355016,31.0045034 542.754566,30.7042782 542.029022,30.7042782 C541.341006,30.7042782 540.828121,30.991994 540.828121,31.4798599 C540.828121,31.942707 541.103327,32.2054041 542.029022,32.4806105 L542.904679,32.7683262 C544.430823,33.2311734 545.268952,34.1193395 545.268952,35.4953715 C545.243933,37.246685 543.89292,38.2224168 542.041531,38.2224168 Z M531.020766,32.7558169 L535.949462,32.7558169 C535.736803,31.4798599 534.711033,30.5916938 533.57268,30.5916938 C532.434326,30.5916938 531.258444,31.4423317 531.020766,32.7558169 Z M533.622717,29.0655492 C535.949462,29.0655492 537.900926,30.6042032 537.900926,33.4563423 C537.900926,33.643983 537.900926,33.806605 537.888416,34.0943207 L530.920691,34.0943207 C531.020766,35.5328997 532.171629,36.6212159 533.647736,36.6212159 C534.886165,36.6212159 535.711784,36.0582937 536.174631,35.2702027 L537.663247,36.2209157 C536.950213,37.3342507 535.78684,38.0848136 534.223167,38.2474356 C531.521141,38.5101326 529.069302,36.5211409 529.006755,33.806605 C528.956718,31.154616 530.895672,29.0655492 533.622717,29.0655492 Z M521.951464,29.3782837 L521.951464,30.566675 C522.476858,29.6910183 523.477608,29.2156617 524.603453,29.2156617 C526.629972,29.2156617 527.943458,30.6417313 527.943458,32.8684013 L527.943458,38.1473605 L526.004503,38.1473605 L526.004503,33.1936452 C526.004503,31.8176132 525.103828,30.9669752 524.003002,30.9669752 C522.889667,30.9669752 521.938954,31.8051038 521.938954,33.1936452 L521.938954,38.1473605 L520,38.1473605 L520,29.3782837 L521.951464,29.3782837 Z M550.247686,36.1458594 C550.522892,36.7338004 550.885664,37.2717038 551.336002,37.7470603 C550.835627,38.0597948 550.197648,38.2349262 549.459595,38.2349262 C547.32049,38.2349262 546.144608,36.8588942 546.182137,34.5571679 L546.182137,26.7262947 L548.096072,26.7262947 L548.096072,29.2782087 L550.647986,29.2782087 L550.647986,30.9794846 L548.121091,30.9794846 L548.121091,34.5696773 C548.108581,35.8831624 548.483863,36.3209907 549.472104,36.3209907 C549.784839,36.295972 550.047536,36.2584438 550.247686,36.1458594 Z" transform="translate(-520 -25)"/>
</svg>
