<svg xmlns="http://www.w3.org/2000/svg" width="16" height="16" viewBox="0 0 16 16">
  <g fill="none">
    <rect width="16" height="16" fill="#FFF"/>
    <path fill="#353F52" d="M13.0251034,13.6820034 C12.1321334,14.5749733 10.9538433,15.0411875 9.78436979,14.8950936 C4.49508348,14.2343351 0.765673728,10.5049278 0.104917906,5.21564011 C-0.0411820386,4.04612708 0.425008292,2.86788731 1.31801661,1.97487661 L2.4393407,0.853552515 C3.02512285,0.267767367 3.97487017,0.267767135 4.56065797,0.853551186 L6.64646244,2.93935066 C7.23221214,3.52513036 7.23221214,4.47486214 6.64645228,5.06065951 L5.85355339,5.85355339 C4.32495791,7.38214887 7.61785113,10.6750421 9.14644661,9.14644661 L9.93934661,8.35354661 C10.5251088,7.76778446 11.4748912,7.76778446 12.0606534,8.35354661 L14.1464534,10.4393466 C14.7322155,11.0251088 14.7322155,11.9748912 14.1464534,12.5606534 L13.0251034,13.6820034 Z M7.5,3 C7.5,2.7238575 7.7238575,2.5 8,2.5 C10.48528,2.5 12.5,4.51472 12.5,7 C12.5,7.276145 12.276145,7.5 12,7.5 C11.72386,7.5 11.5,7.276145 11.5,7 C11.5,5.067005 9.932995,3.5 8,3.5 C7.7238575,3.5 7.5,3.27614 7.5,3 Z M7.5,1 C7.5,0.7238575 7.7238575,0.5 8,0.5 C11.58985,0.5 14.5,3.41015 14.5,7 C14.5,7.27615 14.27615,7.5 14,7.5 C13.72385,7.5 13.5,7.27615 13.5,7 C13.5,3.962435 11.037565,1.5 8,1.5 C7.7238575,1.5 7.5,1.27614 7.5,1 Z M12.3179966,12.9748966 L13.4393466,11.8535466 C13.6345845,11.6583088 13.6345845,11.3416912 13.4393466,11.1464534 L11.3535466,9.06065339 C11.1583088,8.86541554 10.8416912,8.86541554 10.6464534,9.06065339 L9.85355339,9.85355339 C7.38214887,12.3249579 2.67504209,7.61785113 5.14644772,5.14644549 L5.93933529,4.35356293 C6.13458786,4.15829786 6.13458786,3.84169964 5.93934703,3.64644881 L3.85355274,1.56065952 C3.65829018,1.36539821 3.34170749,1.36539829 3.14644839,1.56065839 L2.02512386,2.68198292 C1.33950942,3.36759919 0.991654577,4.2467603 1.09720511,5.09168005 C1.70124518,9.92696349 5.07304779,13.2987639 9.90832966,13.9028063 C10.7532082,14.008351 11.6324201,13.6604731 12.3179966,12.9748966 Z" transform="translate(.5 .5)"/>
  </g>
</svg>
